<?xml version="1.0" encoding="UTF-8"?>
<svg width="567px" height="151.350674px" viewBox="0 0 567 151.350674" version="1.1" xmlns="http://www.w3.org/2000/svg" xmlns:xlink="http://www.w3.org/1999/xlink">
    <title>Group</title>
    <g id="Page-1" stroke="none" stroke-width="1" fill="none" fill-rule="evenodd">
        <g id="Artboard" transform="translate(-144.000000, -168.000000)" fill="#FFFBE4">
            <g id="Group" transform="translate(144.000000, 168.000000)">
                <polygon id="Path" fill-rule="nonzero" points="125.764357 151 125.764357 147.843932 128.335968 147.32627 128.335968 130.377017 125.764357 129.859355 125.764357 126.686588 145.43551 126.686588 145.43551 133.583181 141.377709 133.583181 141.210721 130.794486 133.679575 130.794486 133.679575 136.98973 142.062359 136.98973 142.062359 141.080929 133.679575 141.080929 133.679575 147.32627 136.234487 147.843932 136.234487 151"></polygon>
                <path d="M159.825999,151.350674 C158.167255,151.350674 156.650449,151.04453 155.275584,150.432242 C153.900718,149.819953 152.712322,148.957184 151.710396,147.843932 C150.70847,146.730681 149.937543,145.425393 149.397616,143.92807 C148.857689,142.430747 148.587726,140.79705 148.587726,139.02698 L148.587726,138.642909 C148.587726,136.883971 148.857689,135.258624 149.397616,133.766867 C149.937543,132.27511 150.705687,130.972606 151.702047,129.859355 C152.698407,128.746103 153.88402,127.88055 155.258885,127.262696 C156.633751,126.644841 158.150556,126.335914 159.809301,126.335914 C161.456913,126.335914 162.970935,126.644841 164.351366,127.262696 C165.731798,127.88055 166.93411,128.746103 167.958301,129.859355 C168.982493,130.972606 169.772901,132.27511 170.329527,133.766867 C170.886153,135.258624 171.164465,136.883971 171.164465,138.642909 L171.164465,139.02698 C171.164465,140.79705 170.886153,142.430747 170.329527,143.92807 C169.772901,145.425393 168.985276,146.730681 167.966651,147.843932 C166.948026,148.957184 165.748497,149.819953 164.368065,150.432242 C162.987633,151.04453 161.473611,151.350674 159.825999,151.350674 Z M159.825999,147.259475 C161.128503,147.259475 162.227839,146.914367 163.124007,146.224151 C164.020174,145.533935 164.696474,144.573756 165.152908,143.343613 C165.609341,142.11347 165.837557,140.674593 165.837557,139.02698 L165.837557,138.609511 C165.837557,136.995297 165.606558,135.575901 165.144558,134.351324 C164.682559,133.126748 164.003475,132.169351 163.107308,131.479136 C162.211141,130.78892 161.111805,130.443812 159.809301,130.443812 C158.473399,130.443812 157.37128,130.786137 156.502944,131.470786 C155.634608,132.155436 154.988922,133.107266 154.565886,134.326276 C154.142851,135.545287 153.931333,136.973032 153.931333,138.609511 L153.931333,139.02698 C153.931333,140.674593 154.145634,142.116253 154.574235,143.351962 C155.002837,144.587672 155.654089,145.547851 156.527992,146.232501 C157.401894,146.91715 158.50123,147.259475 159.825999,147.259475 Z" id="Shape" fill-rule="nonzero"></path>
                <path d="M174.934535,151 L174.934535,147.843932 L177.506146,147.32627 L177.506146,130.377017 L174.934535,129.859355 L174.934535,126.669889 L186.673772,126.669889 C188.566299,126.669889 190.199996,126.967684 191.574862,127.563274 C192.949727,128.158863 194.007316,129.0105 194.747628,130.118186 C195.48794,131.225871 195.858097,132.542291 195.858097,134.067445 C195.858097,135.492407 195.48794,136.792128 194.747628,137.966608 C194.007316,139.141089 192.983125,140.073437 191.675054,140.763653 C190.366984,141.453869 188.866877,141.798977 187.174735,141.798977 L182.849753,141.765579 L182.849753,147.32627 L185.404665,147.843932 L185.404665,151 L174.934535,151 Z M190.464393,151 L186.757266,140.980737 L191.499717,139.594739 L194.755978,147.32627 L196.943517,147.843932 L196.943517,151 L190.464393,151 Z M182.849753,137.657681 L186.657073,137.657681 C187.937312,137.657681 188.905841,137.376585 189.56266,136.814393 C190.219478,136.252201 190.547887,135.436745 190.547887,134.368023 C190.547887,133.277037 190.216695,132.405917 189.55431,131.754665 C188.891926,131.103413 187.931746,130.777787 186.673772,130.777787 L182.849753,130.777787 L182.849753,137.657681 Z" id="Shape" fill-rule="nonzero"></path>
                <polygon id="Path" fill-rule="nonzero" points="216.40658 151 216.40658 147.843932 218.97819 147.32627 218.97819 130.811185 214.870293 130.811185 214.653209 133.583181 210.628804 133.583181 210.628804 126.686588 232.737979 126.686588 232.737979 133.583181 228.663478 133.583181 228.463093 130.811185 224.321797 130.811185 224.321797 147.32627 226.893408 147.843932 226.893408 151"></polygon>
                <polygon id="Path" fill-rule="nonzero" points="236.023784 151 236.023784 147.843932 238.595395 147.32627 238.595395 130.377017 236.023784 129.859355 236.023784 126.686588 246.493914 126.686588 246.493914 129.859355 243.939002 130.377017 243.939002 136.973032 253.340411 136.973032 253.340411 130.377017 250.785498 129.859355 250.785498 126.686588 253.340411 126.686588 258.667319 126.686588 261.23893 126.686588 261.23893 129.859355 258.667319 130.377017 258.667319 147.32627 261.23893 147.843932 261.23893 151 250.785498 151 250.785498 147.843932 253.340411 147.32627 253.340411 141.097628 243.939002 141.097628 243.939002 147.32627 246.493914 147.843932 246.493914 151"></polygon>
                <polygon id="Path" fill-rule="nonzero" points="264.842012 151 264.842012 147.843932 267.413623 147.32627 267.413623 130.377017 264.842012 129.859355 264.842012 126.686588 283.978804 126.686588 283.978804 133.466289 279.921003 133.466289 279.737316 130.794486 272.75723 130.794486 272.75723 136.371876 280.755941 136.371876 280.755941 140.496472 272.75723 140.496472 272.75723 146.892102 280.087991 146.892102 280.271677 144.120106 284.296081 144.120106 284.296081 151"></polygon>
                <path d="M299.033392,151 L299.033392,147.843932 L301.605002,147.32627 L301.605002,130.377017 L299.033392,129.859355 L299.033392,126.686588 L301.605002,126.686588 L310.722532,126.686588 C312.626192,126.686588 314.271021,127.01778 315.657019,127.680165 C317.043017,128.34255 318.108955,129.266548 318.854834,130.452161 C319.600712,131.637774 319.973652,133.020989 319.973652,134.601806 C319.973652,136.17149 319.600712,137.546356 318.854834,138.726403 C318.108955,139.906449 317.043017,140.824882 315.657019,141.4817 C314.271021,142.138518 312.626192,142.466928 310.722532,142.466928 L306.948609,142.466928 L306.948609,147.32627 L309.503522,147.843932 L309.503522,151 L299.033392,151 Z M306.948609,138.35903 L310.722532,138.35903 C312.013904,138.35903 312.987999,138.008355 313.644817,137.307007 C314.301635,136.605659 314.630045,135.715057 314.630045,134.635203 C314.630045,133.510819 314.301635,132.586821 313.644817,131.863207 C312.987999,131.139594 312.013904,130.777787 310.722532,130.777787 L306.948609,130.777787 L306.948609,138.35903 Z" id="Shape" fill-rule="nonzero"></path>
                <polygon id="Path" fill-rule="nonzero" points="323.292855 151 323.292855 147.843932 325.864465 147.32627 325.864465 130.377017 323.292855 129.859355 323.292855 126.686588 342.429647 126.686588 342.429647 133.466289 338.371846 133.466289 338.188159 130.794486 331.208072 130.794486 331.208072 136.371876 339.206784 136.371876 339.206784 140.496472 331.208072 140.496472 331.208072 146.892102 338.538833 146.892102 338.72252 144.120106 342.746924 144.120106 342.746924 151"></polygon>
                <path d="M358.640302,151.350674 C356.981558,151.350674 355.464752,151.04453 354.089887,150.432242 C352.715021,149.819953 351.526625,148.957184 350.524699,147.843932 C349.522773,146.730681 348.751846,145.425393 348.211919,143.92807 C347.671992,142.430747 347.402029,140.79705 347.402029,139.02698 L347.402029,138.642909 C347.402029,136.883971 347.671992,135.258624 348.211919,133.766867 C348.751846,132.27511 349.51999,130.972606 350.51635,129.859355 C351.51271,128.746103 352.698322,127.88055 354.073188,127.262696 C355.448054,126.644841 356.964859,126.335914 358.623603,126.335914 C360.271216,126.335914 361.785238,126.644841 363.165669,127.262696 C364.546101,127.88055 365.748413,128.746103 366.772604,129.859355 C367.796795,130.972606 368.587204,132.27511 369.14383,133.766867 C369.700455,135.258624 369.978768,136.883971 369.978768,138.642909 L369.978768,139.02698 C369.978768,140.79705 369.700455,142.430747 369.14383,143.92807 C368.587204,145.425393 367.799579,146.730681 366.780954,147.843932 C365.762328,148.957184 364.5628,149.819953 363.182368,150.432242 C361.801936,151.04453 360.287914,151.350674 358.640302,151.350674 Z M358.640302,147.259475 C359.942806,147.259475 361.042142,146.914367 361.93831,146.224151 C362.834477,145.533935 363.510777,144.573756 363.96721,143.343613 C364.423644,142.11347 364.65186,140.674593 364.65186,139.02698 L364.65186,138.609511 C364.65186,136.995297 364.42086,135.575901 363.958861,134.351324 C363.496862,133.126748 362.817778,132.169351 361.921611,131.479136 C361.025443,130.78892 359.926108,130.443812 358.623603,130.443812 C357.287702,130.443812 356.185583,130.786137 355.317247,131.470786 C354.44891,132.155436 353.803225,133.107266 353.380189,134.326276 C352.957153,135.545287 352.745636,136.973032 352.745636,138.609511 L352.745636,139.02698 C352.745636,140.674593 352.959937,142.116253 353.388538,143.351962 C353.81714,144.587672 354.468392,145.547851 355.342295,146.232501 C356.216197,146.91715 357.315533,147.259475 358.640302,147.259475 Z" id="Shape" fill-rule="nonzero"></path>
                <path d="M373.748838,151 L373.748838,147.843932 L376.320449,147.32627 L376.320449,130.377017 L373.748838,129.859355 L373.748838,126.686588 L376.320449,126.686588 L385.437979,126.686588 C387.341639,126.686588 388.986468,127.01778 390.372466,127.680165 C391.758464,128.34255 392.824402,129.266548 393.570281,130.452161 C394.316159,131.637774 394.689098,133.020989 394.689098,134.601806 C394.689098,136.17149 394.316159,137.546356 393.570281,138.726403 C392.824402,139.906449 391.758464,140.824882 390.372466,141.4817 C388.986468,142.138518 387.341639,142.466928 385.437979,142.466928 L381.664056,142.466928 L381.664056,147.32627 L384.218968,147.843932 L384.218968,151 L373.748838,151 Z M381.664056,138.35903 L385.437979,138.35903 C386.72935,138.35903 387.703445,138.008355 388.360264,137.307007 C389.017082,136.605659 389.345491,135.715057 389.345491,134.635203 C389.345491,133.510819 389.017082,132.586821 388.360264,131.863207 C387.703445,131.139594 386.72935,130.777787 385.437979,130.777787 L381.664056,130.777787 L381.664056,138.35903 Z" id="Shape" fill-rule="nonzero"></path>
                <polygon id="Path" fill-rule="nonzero" points="398.008301 151 398.008301 147.843932 400.579912 147.32627 400.579912 130.377017 398.008301 129.859355 398.008301 126.686588 400.579912 126.686588 405.923519 126.686588 408.912599 126.686588 408.912599 129.859355 405.923519 130.377017 405.923519 146.908801 412.269052 146.908801 412.452739 143.418758 416.527239 143.418758 416.527239 151"></polygon>
                <polygon id="Path" fill-rule="nonzero" points="419.996731 151 419.996731 147.843932 422.568342 147.32627 422.568342 130.377017 419.996731 129.859355 419.996731 126.686588 439.133524 126.686588 439.133524 133.466289 435.075722 133.466289 434.892036 130.794486 427.911949 130.794486 427.911949 136.371876 435.910661 136.371876 435.910661 140.496472 427.911949 140.496472 427.911949 146.892102 435.24271 146.892102 435.426397 144.120106 439.450801 144.120106 439.450801 151"></polygon>
                <path d="M567,44.4101904 C567,37.8419941 561.529325,33.1204791 550.592974,33.1204791 C539.651624,33.1204791 529.09032,40.0729848 529.09032,52.3559111 C529.09032,66.4905098 544.502222,70.3385944 548.602729,82.990857 C525.729905,82.990857 532.940795,63.5108645 525.109828,63.5108645 C522.169465,63.5108645 518.879059,67.1143886 517.138844,71.8508767 C513.283368,75.9185666 508.427769,79.2675482 501.666934,79.2675482 C495.456167,79.2675482 490.985616,75.0501273 490.985616,65.871622 L490.985616,60.9105376 C506.522534,40.6868815 525.539881,27.1661796 525.539881,11.908599 C525.539881,4.96108443 521.184344,0.863448296 514.10347,0.863448296 C489.115385,0.863448296 474.078528,36.7838956 473.368441,66.7650165 C472.968391,67.2591285 472.63835,67.6783751 472.413323,67.982828 C468.052784,73.5677912 462.467095,79.2675482 453.641005,79.2675482 C447.425238,79.2675482 442.954686,75.0501273 442.954686,65.871622 L442.954686,60.9105376 C458.486603,40.6868815 477.503951,27.1661796 477.503951,11.908599 C477.503951,4.96108443 473.158415,0.863448296 466.067539,0.863448296 C441.294481,0.863448296 426.292629,36.194954 425.352513,66.0213529 C420.986974,70.1838725 413.176009,79.3923239 409.225522,79.3923239 C407.360291,79.3923239 406.615199,74.9253515 406.615199,69.2255946 C406.615199,62.8919767 406.740215,57.8111076 407.605322,53.0945836 C409.475553,49.9951536 411.090752,47.0155084 412.700951,43.2921995 C412.700951,39.1995544 405.870107,32.3768156 400.774478,32.3768156 C399.039264,32.3768156 397.664094,33.7393669 396.548957,35.9803397 C395.673849,35.4812366 394.433696,35.1069093 392.813495,34.732582 C390.208174,34.23847 387.722867,33.9889185 385.362576,33.9889185 C375.046302,33.9889185 366.100198,40.442321 360.374491,47.2600689 C355.653908,52.9997541 352.868564,60.1718651 351.753426,67.3689312 C349.618163,70.5132805 346.92283,74.9253515 343.402395,74.9253515 C334.081245,74.9253515 338.806828,48.1334992 326.370293,48.1334992 C322.524818,48.1334992 317.92425,55.4553411 316.559081,60.2916498 C319.539449,63.6456224 323.634955,67.1143886 323.634955,72.8141456 C323.634955,77.7802211 322.024756,83.2354175 316.309051,83.2354175 C312.57859,83.2354175 307.602976,81.0044268 307.602976,68.3521642 C307.602976,56.568341 309.968268,46.0173022 313.443697,37.4626758 C332.466045,36.2199091 350.738301,30.6349459 350.738301,15.3823563 C350.738301,7.19207511 344.517533,0.863448296 333.086122,0.863448296 C321.40468,0.863448296 309.718237,12.5224958 301.272194,28.1593947 C297.286702,27.2909554 293.311211,25.429301 290.325843,25.429301 C289.210705,25.429301 288.715644,26.5472918 288.715644,27.6652827 C288.715644,29.7665066 292.691135,32.7511429 297.91678,34.9821336 C293.54124,44.5199931 290.615879,55.0460766 289.680763,64.9482813 C288.760649,66.0912274 287.900543,67.1992362 287.31047,67.982828 C283.33498,73.1934639 272.768675,79.3923239 269.788307,79.3923239 C267.798061,79.3923239 266.927954,76.0433424 266.927954,70.8376975 C266.927954,65.5022857 267.923077,53.963023 269.538276,44.4101904 C273.138721,44.4101904 279.979565,45.0290782 281.96481,45.0290782 C283.830041,45.0290782 285.460242,37.4327296 285.460242,35.8156357 C285.460242,34.3233175 285.335227,33.8292055 284.095073,33.8292055 C281.354735,33.8292055 277.489258,34.3582547 271.773552,34.23847 C271.773552,34.23847 276.649154,26.2677941 276.649154,24.4909872 C276.649154,21.7559024 274.133844,15.2525895 268.793184,15.2525895 C264.317632,15.2525895 260.08711,23.1983103 256.61168,34.3582547 C253.876343,34.4880215 250.565934,34.2484521 249.650821,34.6427435 C247.730584,35.4712546 246.670453,39.8184422 246.670453,43.7863116 C246.670453,44.5299751 247.165514,45.0290782 248.160637,45.0290782 L253.751327,45.0290782 C252.371157,51.0881893 251.411038,57.4118251 251.000988,63.3112233 C246.150389,67.8929894 236.469194,79.3923239 232.38869,79.3923239 C230.52346,79.3923239 229.778368,74.9253515 229.778368,69.2255946 C229.778368,62.8919767 229.903383,57.8111076 230.773491,53.0945836 C232.638721,49.9951536 234.24892,47.0155084 235.86912,43.2921995 C235.86912,39.1995544 229.033276,32.3768156 223.932646,32.3768156 C222.192431,32.3768156 220.827263,33.7393669 219.707124,35.9803397 C218.837017,35.4812366 217.596864,35.1069093 215.981664,34.732582 C213.371342,34.23847 210.886035,33.9889185 208.520743,33.9889185 C198.20447,33.9889185 189.253365,40.442321 183.537659,47.2600689 C178.497037,53.3790724 175.69169,61.140125 174.736572,68.811339 C170.216014,73.3531769 163.05013,79.7666512 152.448821,79.7666512 C147.848253,79.7666512 140.517348,78.2743331 140.517348,71.4565853 L140.517348,68.3521642 C153.698975,62.2680979 169.605939,60.2916498 169.605939,45.647966 C169.605939,38.7054424 164.505309,33.7393669 155.184159,33.7393669 C140.04729,33.7393669 126.150574,46.9855622 122.945178,66.2060211 C118.539635,70.4533881 110.903692,79.3923239 107.013212,79.3923239 C104.647919,79.3923239 103.777812,77.6554453 103.777812,74.6758 C103.777812,67.7382675 111.238733,47.6393872 111.238733,32.3768156 C111.238733,21.8357589 107.633288,13.5207019 95.5818002,13.5207019 C87.3707865,13.5207019 81.1600198,18.1074591 76.4344364,24.6856374 L76.4344364,23.6974133 C76.4344364,10.7906082 73.5740832,0 58.2921966,0 C48.0959378,0 40.5150019,7.07229038 35.0493271,17.2440108 C34.7992962,7.81595394 32.5640202,0.2445605 21.1276083,0.2445605 C9.81121126,0.2445605 0,6.69297205 0,15.7516926 C0,18.3570106 0.745091987,19.2254499 1.98524509,19.2254499 C6.83084331,19.2254499 9.69119644,13.0215989 14.2917644,13.0215989 C18.1422398,13.0215989 19.3873935,17.8628986 19.3873935,23.0735345 C19.3873935,27.9048521 10.4362884,65.871622 10.4362884,83.1156328 C10.4362884,90.6870262 12.5515496,95.1490076 16.6520558,95.1490076 C19.8824546,95.1490076 22.7428078,93.5369047 25.8481911,92.0495776 C29.7036671,90.1879232 30.9488208,86.8389416 30.9488208,82.8660812 C30.9488208,78.1495573 29.7036671,73.0686882 28.5835288,67.4837249 C28.5835288,66.7450524 28.7085443,65.871622 28.7085443,65.1229674 C31.9389431,49.5010416 41.2600938,16.8696835 55.9269046,16.8696835 C60.9025188,16.8696835 62.2676874,21.2168711 62.2676874,28.0346189 C62.2676874,46.0173022 50.2111989,74.4362305 50.2111989,85.4763903 C50.2111989,90.9265957 52.0764292,95.1490076 55.8018891,95.1490076 C62.0226571,95.1490076 68.4834547,90.5572594 68.4834547,84.2336236 C68.4834547,82.1274087 68.1084084,79.7666512 67.7383628,77.4058938 C68.4834547,56.9376772 82.9002346,30.5151612 92.7164465,30.5151612 C95.4567848,30.5151612 96.3218916,32.7511429 96.3218916,36.4744517 C96.3218916,49.0019385 86.75071,70.9574822 86.75071,81.1292026 C86.75071,88.0817082 90.9812323,93.6566894 99.5522904,93.6566894 C107.993333,93.6566894 117.439499,87.7423182 123.085196,80.6550547 C125.800531,89.9233985 134.876651,94.0260257 144.247808,94.0260257 C160.154772,94.0260257 169.955982,88.2963226 175.516669,82.0225971 C178.12199,89.6439008 184.897827,94.2805683 193.853933,94.2805683 C205.290344,94.2805683 211.756143,89.1947081 216.10668,82.1274087 C217.471848,88.9501476 220.207186,93.6566894 224.927769,93.6566894 C234.904,93.6566894 246.310409,85.3915427 251.141005,76.6772033 C252.216138,86.5644349 255.676565,93.6566894 262.332387,93.6566894 C272.193604,93.6566894 284.210088,86.1501794 290.025806,77.9049968 C292.876158,90.4774029 304.167552,94.405344 314.068774,94.405344 C325.750216,94.405344 332.34603,89.0699323 335.201383,82.2471934 C337.186628,83.7395116 340.046981,84.7277357 344.272503,84.7277357 C347.502902,84.7277357 350.153229,83.5049332 352.273491,81.7530814 C354.808804,89.5340981 361.629646,94.2805683 370.695765,94.2805683 C382.132177,94.2805683 388.592974,89.1947081 392.943512,82.1274087 C394.30868,88.9501476 397.039017,93.6566894 401.764601,93.6566894 C411.030745,93.6566894 421.517039,86.5294977 426.842697,78.5388577 C430.618163,89.2496094 440.909433,93.6566894 451.770774,93.6566894 C461.106927,93.6566894 470.308063,86.9487443 475.14366,79.2525751 C479.124151,89.4392686 489.185393,93.6566894 499.811705,93.6566894 C506.41252,93.6566894 512.943326,90.2827527 517.918941,85.596175 C520.959316,90.4973671 527.63014,94.2805683 539.026546,94.2805683 C555.063526,94.2805683 564.264662,87.9569325 564.264662,76.9117817 C564.264662,71.3368005 559.539079,66.2459493 554.818496,61.2798738 C561.529325,59.0538742 567,53.4639199 567,44.4101904 M510.002963,13.0215989 C511.493147,13.0215989 512.113224,13.8900382 512.113224,15.7516926 C512.113224,23.4428708 503.782195,28.2841705 492.600815,45.4034055 C496.20626,24.8054221 504.652303,13.0215989 510.002963,13.0215989 M461.972034,13.0215989 C463.457217,13.0215989 464.077293,13.8900382 464.077293,15.7516926 C464.077293,23.4428708 455.756266,28.2841705 444.569885,45.4034055 C448.17033,24.8054221 456.626374,13.0215989 461.972034,13.0215989 M334.081245,13.0215989 C336.07149,13.0215989 337.066613,15.008029 337.066613,17.3687865 C337.066613,24.4360859 326.620323,28.6584978 316.684097,30.3903854 C322.524818,19.4750014 329.860724,13.0215989 334.081245,13.0215989 M150.33356,44.7795266 C152.943882,44.7795266 154.194036,46.0173022 154.194036,47.8839477 C154.194036,52.9698079 148.348315,55.2007986 141.387455,59.7925467 C142.632609,51.9815838 145.367947,44.7795266 150.33356,44.7795266 M215.111557,66.2459493 C212.126188,76.787006 205.41536,81.0044268 199.699654,81.0044268 C194.103963,81.0044268 192.608779,76.2928939 192.608779,71.4565853 C192.608779,54.7066865 205.540375,44.6547509 217.596864,42.4237602 C215.731634,50.3644899 215.236572,61.1550981 215.111557,66.2459493 M391.948389,66.2459493 C388.968021,76.787006 382.257192,81.0044268 376.536486,81.0044268 C370.940795,81.0044268 369.455612,76.2928939 369.455612,71.4565853 C369.455612,54.7066865 382.382208,44.6547509 394.433696,42.4237602 C392.568465,50.3644899 392.073404,61.1550981 391.948389,66.2459493 M544.127176,45.0290782 C544.127176,45.0290782 546.772503,43.6415717 550.092913,43.7863116 C553.693357,43.9510156 554.938511,45.647966 554.938511,47.6393872 C554.938511,50.2397141 552.208174,53.7184625 549.972898,56.1940137 C546.617484,52.6004716 544.127176,48.8771628 544.127176,45.0290782" id="Fill-1"></path>
            </g>
        </g>
    </g>
</svg>