<svg xmlns="http://www.w3.org/2000/svg" width="939" height="354" viewBox="0 0 939 354"><path fill="#FCF4E7" fill-rule="evenodd" d="M828.5064,4.3583 C834.1804,4.0523 839.8824,4.0593 845.5414,4.6073 C852.6904,5.3043 859.6744,6.9283 866.5634,8.9673 L866.5634,8.9673 L870.201332,10.04764 C875.659119,11.665598 881.126582,13.250936 886.6804,14.5183 C890.1384,15.3083 893.4514,16.5393 896.6844,17.9573 C901.3944,20.0223 920.2404,33.6423 920.9694,35.0893 C921.761822,36.659706 922.890269,38.700613 924.048909,40.734175 L924.546425,41.603859 C926.7579,45.454738 928.9204,49.0313 928.9204,49.0313 L928.9204,49.0313 L931.2444,53.9503 L936.8274,71.3923 L938.4514,78.9033 L937.1964,114.5423 L869.7794,110.6303 C869.7794,110.6303 870.3134,104.9383 869.8764,102.0833 C869.7794,101.4523 869.6534,100.8063 869.6924,100.1783 C869.8224,98.2433 869.5484,96.3603 869.2774,94.4473 C868.7364,90.6463 868.4444,86.8143 867.9644,83.0023 C867.783662,81.572382 866.936941,78.966201 866.000482,76.388084 L865.774304,75.770491 C864.486208,72.280841 863.1174,69.0213 863.1174,69.0213 L863.1174,69.0213 L857.2884,63.2863 L846.1224,62.1823 L833.1624,62.7883 L820.8484,83.9813 L816.0554,121.6123 L816.0884,142.6883 L817.2504,161.9033 L829.5824,150.3323 L839.0844,144.5113 L846.3894,142.2993 L862.9584,140.8013 L869.9784,140.6603 L892.1774,143.7643 L899.3084,146.4173 L906.3244,150.6613 L909.6984,153.1083 L915.2564,159.3333 L920.9404,167.1183 L932.1754,182.7773 L933.5254,189.1803 L934.7634,203.9123 L935.3954,217.0743 L938.3364,243.7883 L937.9574,272.9203 L933.7204,292.9573 L928.5054,309.7503 L924.7554,318.9643 L921.0854,325.6623 L914.6254,335.1683 L908.4534,339.1673 L895.0104,343.1233 L879.3074,347.6773 L877.1234,348.1903 L855.2314,351.3953 L849.2764,352.9213 L832.2894,352.2903 L828.1534,351.9143 L822.4544,351.0083 C822.4544,351.0083 822.34565,350.992003 822.152155,350.962448 L821.801352,350.908552 C820.939256,350.775387 819.347696,350.52452 817.788894,350.252488 L817.298619,350.165992 C816.405037,350.006539 815.549327,349.843398 814.8794,349.6953 C813.787708,349.454377 812.36598,349.11433 810.920671,348.758967 L810.107217,348.558012 C807.13025,347.819308 804.2974,347.0823 804.2974,347.0823 L804.2974,347.0823 L797.2454,345.0793 L776.8794,335.0423 L769.5574,330.4553 C769.5574,330.4553 767.42229,329.049636 765.114032,327.528994 L764.186145,326.917664 C763.02637,326.153486 761.888706,325.403586 761.0184,324.8293 C760.5994,323.6743 760.1774,322.5223 759.7624,321.3783 C759.4914,320.4653 758.9464,318.6323 758.9464,318.6323 L758.9464,318.6323 L758.938199,318.608786 C758.796853,318.203563 756.849279,312.621992 754.72177,306.625135 L754.352063,305.583985 L754.352063,305.583985 L753.856769,304.192365 C752.742249,301.065356 751.638241,297.999175 750.7724,295.6603 C749.3504,291.8203 748.3904,287.8833 747.7444,283.8733 C746.1664,274.0533 744.9294,264.1833 743.7524,254.3053 C743.548625,252.603738 743.22557,248.624974 742.916316,244.537232 L742.832415,243.42132 C742.424887,237.96847 742.0634,232.6723 742.0634,232.6723 L742.063125,232.648393 C742.057661,232.172661 741.971427,224.669629 741.876136,216.659472 L741.866579,215.857008 C741.853804,214.785445 741.84091,213.70873 741.828067,212.642319 L741.818448,211.844684 C741.776828,208.398731 741.7362,205.10242 741.7024,202.4863 C741.6374,197.3543 741.2334,192.2303 741.3924,187.0903 C741.5254,182.9153 741.2554,178.7073 741.6844,174.5673 C741.910114,172.398014 742.02065,170.222734 742.109256,168.046424 L742.211025,165.434675 C742.3314,162.3878 742.4819,159.3428 742.9184,156.3133 C743.2834,153.7833 743.1354,151.1813 743.2184,148.6113 C743.4204,142.6243 743.8644,136.6543 744.5534,130.7033 C744.6614,129.7473 744.6514,128.7763 744.6764,127.8123 C744.7774,123.6363 744.5284,119.4183 745.0484,115.2923 C745.9074,108.4753 745.2794,101.6003 746.2064,94.7933 C746.352622,93.723522 746.379536,92.639522 746.38336,91.55043 L746.383807,89.914115 C746.3874,89.095189 746.405067,88.275967 746.4774,87.4603 C746.7194,84.6993 746.4484,81.8873 747.2604,79.1813 C747.2924,79.0803 747.3004,78.9683 747.2964,78.8593 C747.0804,73.9843 749.0214,69.4043 749.2744,64.5893 C749.2854,64.3763 749.3244,64.1603 749.3974,63.9583 C749.778491,62.878118 750.144111,61.791755 750.506311,60.704024 L751.048552,59.072003 C752.495722,54.720424 753.984582,50.385482 756.2864,46.3753 C757.9904,43.4043 760.0434,40.6513 761.6064,37.5903 C762.0794,36.6593 762.8154,35.7573 763.6524,35.1433 C765.4864,33.8043 767.0634,32.2063 768.6004,30.5783 C770.7474,28.3013 773.2884,26.5143 775.6884,24.5513 C776.8474,23.6023 777.9984,22.6383 779.1174,21.6463 C783.4484,17.8163 787.9084,14.1573 792.7524,10.9743 C794.1304,10.0683 795.5164,9.5343 797.2454,9.5883 C798.5914,9.6313 799.9594,9.1113 801.3164,8.8443 C806.5634,7.8163 811.7934,6.6973 817.0624,5.7983 C820.8524,5.1493 824.6774,4.5643 828.5064,4.3583 Z M696.7295,277.1685 L697.517563,277.236355 C702.10309,277.635133 706.4105,278.0765 706.4105,278.0765 L725.3815,283.9615 L732.1715,313.5965 L730.2965,322.9475 L706.6625,349.2285 L680.4875,347.4315 L676.3515,343.3405 L658.9395,319.7715 L659.3405,303.2835 C659.3405,303.2835 666.352536,296.540668 673.281106,289.849387 L674.095419,289.062825 C680.464482,282.909706 686.52634,277.02666 686.7275,276.7315 C686.9415,276.4175 691.86225,276.75375 696.7295,277.1685 Z M709.7251,0 L709.7251,17.98 L709.6961,51.706 L709.7251,67.482 L697.7861,67.482 C697.2341,67.507 696.6861,67.532 696.1331,67.557 C694.992656,67.609222 693.85152,67.65216 692.710241,67.692267 L689.286527,67.810547 C686.433989,67.91279 683.583989,68.037667 680.7451,68.286 C680.4741,68.312 680.2071,68.326 679.9401,68.348 L679.9401,68.348 L644.5321,71.112 C644.4451,72.863 644.4021,74.613 644.3731,76.367 L644.3731,76.367 L643.0701,119.672 C642.9221,122.613 642.7741,125.554 642.6511,128.496 C642.3231,136.41 642.0491,144.325 641.7531,152.243 L641.7531,152.243 L641.4851,159.145 C641.3971,161.44575 641.3141,163.7465 641.2471,166.047 C641.2041,167.574 641.1751,169.101 641.1431,170.631 L641.1431,170.631 L641.1281,171.042 L639.2841,225.654 L639.2771,226.029 C639.1831,228.502 639.1041,230.974 639.0571,233.446 C638.8801,243.082 638.4681,252.715 638.2341,262.347 C638.1731,264.862 638.1471,267.374 638.1331,269.89 L638.1331,269.89 L638.1331,269.933 L637.1151,315.226 L637.0861,316.28 C637.0571,317.157 637.0361,318.038 637.0211,318.918 L637.0211,318.918 L636.3141,347.365 L628.6011,346.296 C628.2301,346.257 627.8581,346.203 627.4831,346.17 C627.3131,346.156 627.1401,346.141 626.9701,346.127 L626.9701,346.127 L626.8731,346.116 L625.7941,346.033 C622.9861,345.795 620.1781,345.578 617.3671,345.376 L617.3671,345.376 L616.5731,345.315 L614.2301,345.145 L614.2301,345.145 L613.7001,345.109 C610.2281,344.864 606.7521,344.535 603.2811,344.369 L603.2811,344.369 L603.0821,344.355 L601.8911,344.322 C601.3421,344.304 600.7901,344.275 600.2421,344.272 C598.2241,344.247 596.2101,344.192 594.2001,344.124 L594.2001,344.124 L593.6161,344.106 C593.5941,344.106 593.5721,344.106 593.5511,344.102 L593.5511,344.102 L576.0831,342.742 C575.8301,342.709 575.5741,342.684 575.3211,342.655 L575.3211,342.655 L570.5771,342.054 L570.3811,333.741 L570.3231,318.37 L570.3191,318.135 C570.3661,310.112 570.2401,302.093 570.1061,294.074 L570.1061,294.074 L569.9041,271.348 L569.8651,229.685 L569.1071,182.667 L569.0961,182.266 C569.0921,181.176 569.0561,180.083 568.9951,178.986 L568.9951,178.986 L568.6771,168.502 L568.6631,167.982 C568.6701,165.355 568.5651,162.731 568.4281,160.111 L568.4281,160.111 L568.3701,158.075 L568.0491,146.508 C568.0351,145.148 567.9991,143.791 567.9371,142.434 L567.9371,142.434 L567.1981,115.716 L567.1941,115.673 C567.209725,113.503 567.106991,111.335734 566.987215,109.169738 L566.84179,106.571059 L566.84179,106.571059 L566.7751,105.272 C566.7321,104.377 566.6711,103.481 566.6061,102.586 L566.6061,102.586 L566.5951,102.345 L565.5341,68.51 L544.7101,69.589 L518.5011,70.141 C518.1371,70.145 517.7761,70.156 517.4111,70.163 L517.4111,70.163 L515.7331,70.199 L498.3051,70.445 C498.2831,70.43 498.2621,70.423 498.2401,70.412 C498.148786,61.3952 497.96216,52.438795 497.951571,51.934361 L497.9511,51.912 L496.5651,30.276 L495.8761,17.208 L495.6781,14.288 L496.5731,14.173 C496.5761,14.165 496.5761,14.158 496.5801,14.151 L496.5801,14.151 L522.4891,10.809 L551.3471,8.683 C555.3781,8.507 559.3911,8.019 563.4301,7.817 C565.4651,7.712 567.5011,7.536 569.5331,7.341 L569.5331,7.341 L569.7421,7.326 L638.4791,3.165 L709.7251,0 Z M829.5534,186.3763 L818.3074,201.5593 L812.2764,234.5023 C812.2764,234.5023 811.9029,239.6488 811.5159,245.30455 L811.463077,246.07851 C811.093207,251.512226 810.725945,257.217891 810.6744,259.1623 C810.610723,261.577977 811.926591,267.640764 813.535865,273.694143 L813.76764,274.558452 C815.674853,281.610008 817.911024,288.411762 818.7514,289.1573 C822.5804,292.5533 826.3524,296.0793 831.5094,297.4723 C832.7434,297.8083 833.9164,298.3643 835.1434,298.7253 C836.7754,299.2053 838.4134,299.8473 840.0774,299.9523 C841.7044,300.0563 842.9354,298.6383 844.4044,298.0103 C846.6604,297.0543 848.8544,295.9463 850.6154,294.1703 C850.8034,293.9143 851.1824,293.4083 851.1824,293.4083 L851.1824,293.4083 L857.1374,288.0243 L860.7894,283.1703 L865.2284,267.8533 C865.2284,267.8533 865.559606,262.444672 865.909019,256.688981 L865.959025,255.864925 L865.959025,255.864925 L866.009076,255.039426 C866.359118,249.263538 866.697559,243.622641 866.7114,243.1783 C866.8274,239.8043 867.0434,236.4293 867.2244,233.0553 L867.2244,233.0553 L867.2674,233.0693 L867.3754,227.3093 C867.1556,226.5288 867.11465,217.71622 867.109862,212.498917 L867.109999,210.059994 C867.110075,209.988478 867.110154,209.919348 867.110236,209.852703 L867.110755,209.483457 C867.110844,209.42715 867.110934,209.373528 867.111023,209.322687 L867.111978,208.852472 C867.112042,208.82547 867.1121,208.801646 867.112152,208.781099 L867.1124,208.6873 L866.9064,202.9273 L857.4874,190.9813 L849.2334,187.7873 L829.5534,186.3763 Z M238.4112,11.3208 L276.0642,12.6158 L312.2192,14.0128 L323.1692,41.8818 L328.2612,57.4108 C328.2612,57.4108 333.990706,76.7013944 339.834803,96.2993288 L340.550597,98.6993211 C346.394694,118.290719 352.1242,137.41463 352.1242,137.0878 C352.1242,136.77256 358.306056,121.097688 364.88317,104.510634 L365.417202,103.164024 C367.555878,97.7718704 369.71968,92.32484 371.7112,87.3158 C372.5232,85.3378 373.3352,83.3638 374.1472,81.3858 C375.3202,78.5128 376.4172,75.6118 377.5462,72.7248 L377.5462,72.7248 L377.459,72.8698 C378.316137,70.7172375 379.020024,68.9550305 379.515006,67.708247 L379.6112,67.4658 C379.8202,66.9678 380.0222,66.4668 380.2132,65.9578 C380.2962,65.7518 380.3432,65.6288 380.3432,65.6288 L380.3432,65.6288 L380.3512,65.5898 C380.7112,64.6148 381.0652,63.6408 381.4222,62.6728 C385.2302,52.4488 389.3262,42.3328 392.8092,31.9888 C394.6672,26.4678 396.7142,21.0108 398.7062,15.5358 L398.7062,15.5358 L454.6422,19.0118 L477.2672,20.6208 C476.7012,22.2378 476.1482,23.8618 475.4882,25.4388 C472.6842,32.1518 469.8722,38.8648 466.9992,45.5488 C463.8702,52.8238 460.6952,60.0748 457.4972,67.3218 C454.8232,73.3848 452.1192,79.4408 449.3732,85.4718 C444.7612,95.6018 440.0692,105.6968 435.4862,115.8408 C432.8442,121.6878 430.3682,127.6138 427.7872,133.4898 C427.4522,134.2578 427.2822,135.1428 426.5602,135.7058 L426.5602,135.7058 L425.2722,138.7478 L425.1852,138.9178 C424.5652,139.3578 424.1462,139.9238 423.8252,140.6428 C419.9962,149.2248 416.1012,157.7818 412.2762,166.3638 C410.3232,170.7558 408.5692,175.2348 406.5562,179.5978 C400.9072,191.8218 395.4252,204.1178 390.2902,216.5658 C390.1272,216.9588 389.8422,217.3628 389.8492,217.7568 C389.8782,219.7598 389.6732,221.7698 389.7922,223.7688 L389.7922,223.7688 L389.0662,302.2618 C389.0592,302.4348 389.0522,302.6078 389.0412,302.7818 L389.0412,302.7818 L388.3552,313.8648 C388.2402,315.6658 388.1352,317.4628 388.0232,319.2638 L388.0232,319.2638 L387.1972,332.5778 C387.148367,333.1288 387.094339,333.679494 387.038941,334.230115 L386.872459,335.881985 C386.6552,338.0848 386.4772,340.290133 386.5832,342.5128 L386.5832,342.5128 L358.0252,341.2608 C352.5752,340.9108 347.1292,340.5068 341.6622,340.3408 C339.245836,340.2688 336.830514,340.167569 334.415442,340.058568 L329.585397,339.836566 C324.755217,339.616924 319.923927,339.423436 315.0852,339.4278 C313.7062,339.4278 312.3202,339.4528 310.9422,339.4278 C310.9352,339.4238 310.9312,339.4198 310.9242,339.4168 L310.9242,339.4168 L311.8332,301.9228 C311.8732,301.7388 311.8952,301.5398 311.9022,301.3308 C312.0392,297.0538 312.2342,292.7848 312.3712,288.5078 C312.485533,284.9108 312.535644,281.313022 312.572089,277.714985 L312.622825,272.3178 C312.67595,266.92055 312.7552,261.5233 313.0312,256.1278 C313.2842,251.2158 313.0892,246.2818 313.3632,241.3738 C313.5012,238.9378 313.1942,236.7108 312.1362,234.5748 L312.1362,234.5748 L311.7472,233.2568 C310.8912,229.7128 309.7872,226.2448 308.6322,222.7908 L308.6322,222.7908 L298.9822,190.3458 C298.0582,187.0728 297.1302,183.7988 296.0732,180.5688 L296.0732,180.5688 L291.3882,164.8198 C291.1792,163.8808 290.9592,162.9388 290.6772,162.0188 C289.5512,158.3378 288.3892,154.6638 287.2592,150.9828 C286.6352,148.9398 285.9022,146.9118 285.4772,144.8258 C284.3692,139.3898 282.2072,134.2688 280.8892,128.8808 C279.3992,122.7638 277.1472,116.8338 275.2562,110.8138 C274.5522,108.5728 273.9242,106.3098 273.3542,104.0258 C272.6862,101.3478 271.7012,98.7238 270.6222,96.1758 C270.0372,94.7858 269.4492,93.4508 269.2472,91.9458 C269.1492,91.2058 268.9732,90.4628 268.7132,89.7658 C265.6962,81.6418 263.3532,73.2838 260.0942,65.2428 C258.4092,61.0888 256.8252,56.8878 255.3342,52.6548 C253.6672,47.9158 251.6202,43.3248 249.8662,38.6268 C248.4442,34.8078 246.5062,31.2318 245.0482,27.4308 C244.5542,26.1388 244.2722,24.7498 243.5942,23.5408 C241.7602,20.2598 240.4292,16.7668 239.0432,13.2948 C238.7872,12.6518 238.5882,11.9878 238.4112,11.3208 L238.4112,11.3208 Z M149.899047,13.6888 C150.085121,13.6927855 150.743588,13.7042789 151.442048,13.7216367 L151.824393,13.7316711 C152.396062,13.74755 152.941875,13.76705 153.225,13.7888 C159.627,14.2718 166.048,14.4598 172.443,15.1088 C177.344,15.6068 182.238,16.1488 187.131,16.7008 C191.809,17.2278 196.475,17.8588 201.138,18.4978 C204.744,18.9928 208.371,19.3968 211.925,20.1508 C213.677,20.5208 214.936,20.8918 214.936,20.8918 C214.936,20.8918 215.055,22.0068 215.217,23.7488 C215.682,28.7518 215.953,33.7828 216.076,38.8058 C216.282,47.1608 216.451,55.5118 216.985,63.8568 C217.473,71.4498 217.707,79.0578 217.978,86.6618 C218.88,112.0438 219.566,137.4368 219.678,162.8408 C219.696,166.1608 219.851,169.4818 219.822,172.8018 C219.739,181.6908 219.504,190.5798 219.501,199.4688 C219.501,206.0048 219.67,212.5338 219.461,219.0728 C219.299,224.1038 219.414,229.1388 219.234,234.1768 C218.916,243.0588 218.862,251.9508 218.732,260.8398 C218.664,265.5468 218.876,270.2488 218.544,274.9658 C218.194,279.8738 218.277,284.8118 218.194,289.7378 C218.155,292.2028 218.209,294.6678 218.155,297.1328 C218.036,302.8098 217.855,308.4868 217.74,314.1638 C217.624,319.9198 217.556,325.6798 217.469,331.4368 L217.469,331.4368 L150.763,336.3808 L126.803,273.3238 C125.284,269.0798 123.757,264.8388 122.18,260.6198 C118.885,251.7998 115.453,243.0298 112.1,234.2348 C109.429,227.2368 106.78,220.2318 104.131,213.2228 C101.749,206.9218 99.364,200.6168 97.007,194.3048 C95.397,189.9948 93.864,185.6608 92.243,181.3588 C88.883,172.4448 85.541,163.5268 82.087,154.6518 C81.6862941,153.622624 81.3095052,152.583482 80.9367806,151.542529 L80.3782603,149.980762 C79.3507958,147.118769 78.279,144.273918 76.75,141.6158 L76.75,141.6158 L70.372,128.1948 L73.26,238.9908 C73.263,239.4528 73.267,239.9148 73.27,240.3768 L73.27,240.3768 L73.256,247.6058 C73.245,248.3888 73.249,249.1758 73.234,249.9628 C73.18,252.6588 73.202,255.3508 73.231,258.0428 L73.231,258.0428 L73.191,275.5218 L73.191,276.5468 L73.054,338.1418 L4.371,339.4198 L3.057,307.0318 L3.057,307.0108 L0.502,243.8738 L1.256,215.5078 L0.913,194.4738 C1.108,192.9978 1.047,191.4748 0.985,189.9808 C0.953,189.2228 0.957,188.4688 0.942,187.7108 L0.942,187.7108 L0.993,176.0318 C1.065,172.8668 1.148,169.7058 1.159,166.5398 C1.18,160.7618 1.007,154.9808 1.151,149.2028 C1.289,143.8608 1.426,138.5158 1.52,133.1678 C1.556,130.9228 1.501,128.6708 1.44,126.4218 C1.379,124.3078 1.303,122.1958 1.231,120.0848 L1.231,120.0848 L1.256,114.8918 L1.231,109.9078 C1.512,106.7208 1.292,103.5338 1.18,100.3468 L1.18,100.3468 L1.159,96.1898 C1.177,95.5758 1.187,94.9658 1.202,94.3558 C1.169,93.7428 1.166,93.1288 1.141,92.5188 L1.141,92.5188 L1.086,81.5588 C1.115,79.7328 1.144,77.9098 1.155,76.0838 C1.238,64.0908 1.566,52.0978 0.993,40.1128 C0.935,38.9328 0.884,37.7518 0.827,36.5718 L0.827,36.5718 L0.307,23.9328 C0.278,22.9518 0.224,21.9738 0.188,20.9918 L0.188,20.9918 L0,16.4918 L74.725,15.8818 L75.595,17.7148 C77.154,21.6058 79.178,25.2758 80.943,29.0688 C84.426,36.5428 88.028,43.9598 91.554,51.4158 C93.889,56.3528 96.173,61.3158 98.508,66.2568 C98.703,66.6718 98.848,67.1588 99.183,67.4688 L99.183,67.4688 L123.241,118.2048 C124.58,121.1238 125.912,124.0478 127.225,126.9818 C129.784,132.6988 132.336,138.4218 134.869,144.1498 L134.869,144.1498 L149.854,182.3368 L149.854,176.7538 C149.915,175.9738 149.969,175.1908 149.948,174.4118 C149.922,173.3428 149.886,172.2748 149.854,171.2068 L149.854,171.2068 L149.854252,13.947275 C149.85239,13.74809 149.847,13.6888 149.847,13.6888 L149.847,13.6888 L149.899047,13.6888 Z" transform="translate(0 .68)"/></svg>