<?xml version="1.0" encoding="UTF-8" standalone="no"?>
<!-- Created with Inkscape (http://www.inkscape.org/) -->

<svg
   version="1.1"
   id="svg2"
   width="985.69336"
   height="340.60001"
   viewBox="0 0 985.69336 340.60001"
   sodipodi:docname="StockholmsStadsmission_logo_white_CMYK.eps"
   xmlns:inkscape="http://www.inkscape.org/namespaces/inkscape"
   xmlns:sodipodi="http://sodipodi.sourceforge.net/DTD/sodipodi-0.dtd"
   xmlns="http://www.w3.org/2000/svg"
   xmlns:svg="http://www.w3.org/2000/svg">
  <defs
     id="defs6" />
  <sodipodi:namedview
     id="namedview4"
     pagecolor="#ffffff"
     bordercolor="#000000"
     borderopacity="0.25"
     inkscape:showpageshadow="2"
     inkscape:pageopacity="0.0"
     inkscape:pagecheckerboard="0"
     inkscape:deskcolor="#d1d1d1" />
  <g
     id="g8"
     inkscape:groupmode="layer"
     inkscape:label="ink_ext_XXXXXX"
     transform="matrix(1.3333333,0,0,-1.3333333,0,340.6)">
    <g
       id="g10"
       transform="scale(0.1)">
      <path
         d="m 249.402,1685.11 v -98.59 c 0,-53.78 21.668,-82.46 72.762,-82.46 19.102,0 37.469,8.66 48.856,22.41 11.343,13.72 17.035,31.37 17.035,52.88 0,35.85 -10.77,71.7 -32.266,107.55 -21.519,35.85 -67.523,87.83 -138.035,155.95 -137.422,133.81 -206.1329,265.28 -206.1329,394.35 0,94.38 31.6523,170.87 94.9999,229.44 63.324,58.53 140.406,87.83 231.231,87.83 88.402,0 162.214,-27.2 221.363,-81.57 59.172,-54.38 88.734,-127.57 88.734,-219.57 v -93.22 H 396.582 v 80.67 c 0,47.79 -16.238,76.9 -62.016,76.9 -35.847,0 -54.082,-26.71 -54.082,-69.73 0,-29.89 11.055,-62.15 33.168,-96.79 22.114,-34.68 67.809,-85.45 137.133,-152.37 71.703,-69.32 123.945,-136.22 156.828,-200.76 32.864,-64.53 49.305,-133.85 49.305,-207.93 0,-96.79 -32.266,-175.38 -96.801,-235.71 -64.535,-60.35 -144.015,-90.52 -238.398,-90.52 -90.824,0 -166.699,28.07 -227.6487,84.25 -60.9531,56.15 -91.41796,131.44 -91.41796,225.84 v 111.15 H 249.402"
         style="fill:#ffffff;fill-opacity:1;fill-rule:nonzero;stroke:none"
         id="path12" />
      <path
         d="M 1250.97,2267.66 H 1101.74 V 1281.79 H 832.879 v 985.87 H 683.672 v 268.89 h 567.298 v -268.89"
         style="fill:#ffffff;fill-opacity:1;fill-rule:nonzero;stroke:none"
         id="path14" />
      <path
         d="m 1557.47,2231.81 v -645.29 c 0,-47.81 25.6,-71.7 67.45,-71.7 41.81,0 64.5,22.12 64.5,69.93 v 645.3 c 0,47.78 -22.69,73.46 -64.5,73.46 -41.85,0 -67.45,-23.91 -67.45,-71.7 z m -264.16,-648.88 v 645.3 c 0,96.8 32.26,175.36 96.78,235.72 64.53,60.32 144.01,90.52 238.42,90.52 94.38,0 172.65,-28.99 234.81,-86.94 62.12,-57.98 93.2,-135.33 93.2,-232.12 V 1590.1 c 0,-96.79 -32.25,-175.38 -96.78,-235.71 -64.54,-60.35 -144.02,-90.52 -238.42,-90.52 -94.38,0 -172.68,28.96 -234.79,86.93 -62.17,57.95 -93.22,135.33 -93.22,232.13"
         style="fill:#ffffff;fill-opacity:1;fill-rule:nonzero;stroke:none"
         id="path16" />
      <path
         d="m 2689.65,2061.53 h -254.07 v 179.25 c 0,41.82 -23.76,62.73 -59.61,62.73 -35.85,0 -57.82,-24.94 -57.82,-66.76 v -663.22 c 0,-41.85 21.97,-58.71 57.82,-58.71 35.85,0 59.61,20.89 59.61,62.74 v 197.17 h 254.07 v -202.55 c 0,-92.04 -30.78,-166.42 -92.3,-223.17 -61.57,-56.77 -136.56,-85.14 -224.97,-85.14 -90.82,0 -166.69,28.07 -227.65,84.25 -60.95,56.15 -91.41,131.44 -91.41,225.84 v 663.24 c 0,94.38 31.65,170.87 95,229.44 63.32,58.53 140.41,87.83 231.23,87.83 88.43,0 162.24,-27.2 221.36,-81.57 59.17,-54.38 88.74,-127.57 88.74,-219.57 v -191.8"
         style="fill:#ffffff;fill-opacity:1;fill-rule:nonzero;stroke:none"
         id="path18" />
      <path
         d="m 3222.58,1281.79 -161.32,580.78 v -580.78 h -268.88 v 1254.76 h 268.88 v -541.34 l 143.4,541.34 h 295.77 l -197.19,-591.53 215.1,-663.23 h -295.76"
         style="fill:#ffffff;fill-opacity:1;fill-rule:nonzero;stroke:none"
         id="path20" />
      <path
         d="m 3973.77,1281.79 v 510.87 h -125.61 v -510.87 h -268.89 v 1254.76 h 268.89 v -475.02 h 125.61 v 475.02 h 268.88 V 1281.79 h -268.88"
         style="fill:#ffffff;fill-opacity:1;fill-rule:nonzero;stroke:none"
         id="path22" />
      <path
         d="m 5619.1,1281.79 h -492.93 v 1254.76 h 268.87 v -985.88 h 224.06 v -268.88"
         style="fill:#ffffff;fill-opacity:1;fill-rule:nonzero;stroke:none"
         id="path24" />
      <path
         d="m 6108.28,1282.15 -165.02,726.56 v -726.92 h -245.57 v 1254.76 h 298.91 l 200.34,-544.65 200.33,544.65 h 280.99 V 1281.79 h -245.57 v 726.92 l -164.34,-726.56 h -160.07"
         style="fill:#ffffff;fill-opacity:1;fill-rule:nonzero;stroke:none"
         id="path26" />
      <path
         d="m 4613.08,2231.81 v -645.29 c 0,-47.81 25.6,-71.7 67.45,-71.7 41.81,0 64.5,22.12 64.5,69.93 v 645.3 c 0,47.78 -22.69,73.46 -64.5,73.46 -41.85,0 -67.45,-23.91 -67.45,-71.7 z m -264.16,-648.88 v 645.3 c 0,96.8 32.26,175.36 96.77,235.72 64.54,60.32 144.02,90.52 238.43,90.52 94.38,0 172.65,-28.99 234.81,-86.94 62.12,-57.98 93.2,-135.33 93.2,-232.12 V 1590.1 c 0,-96.79 -32.25,-175.38 -96.78,-235.71 -64.54,-60.35 -144.02,-90.52 -238.42,-90.52 -94.38,0 -172.68,28.96 -234.79,86.93 -62.17,57.95 -93.22,135.33 -93.22,232.13"
         style="fill:#ffffff;fill-opacity:1;fill-rule:nonzero;stroke:none"
         id="path28" />
      <path
         d="m 6985.2,1685.16 v -98.6 c 0,-53.77 21.67,-82.45 72.76,-82.45 19.1,0 37.47,8.65 48.86,22.4 11.34,13.73 17.03,31.38 17.03,52.89 0,35.85 -10.77,71.7 -32.26,107.55 -21.52,35.85 -67.53,87.83 -138.04,155.95 -137.42,133.81 -206.13,265.28 -206.13,394.35 0,94.38 31.65,170.87 95,229.44 63.32,58.53 140.41,87.83 231.23,87.83 88.4,0 162.21,-27.2 221.36,-81.57 59.17,-54.38 88.74,-127.57 88.74,-219.57 v -93.22 h -251.37 v 80.67 c 0,47.78 -16.24,76.9 -62.02,76.9 -35.85,0 -54.08,-26.71 -54.08,-69.73 0,-29.89 11.06,-62.16 33.17,-96.8 22.11,-34.67 67.81,-85.45 137.13,-152.36 71.7,-69.32 123.95,-136.23 156.83,-200.76 32.86,-64.53 49.3,-133.85 49.3,-207.94 0,-96.78 -32.26,-175.38 -96.8,-235.7 -64.53,-60.36 -144.01,-90.52 -238.39,-90.52 -90.83,0 -166.7,28.06 -227.65,84.25 -60.96,56.14 -91.42,131.44 -91.42,225.84 v 111.15 h 246.75"
         style="fill:#ffffff;fill-opacity:1;fill-rule:nonzero;stroke:none"
         id="path30" />
      <path
         d="m 1470.73,397.27 -51.28,371.179 -50.78,-371.179 z m 80.55,752.4 L 1769.71,17.0313 H 1518.89 L 1494.65,203.109 H 1346.59 L 1322.31,17.0313 H 1071.87 L 1290.31,1149.67 h 260.97"
         style="fill:#ffffff;fill-opacity:1;fill-rule:nonzero;stroke:none"
         id="path32" />
      <path
         d="m 2052.18,923.141 v -679.59 h 32.36 c 48.53,0 72.82,26.961 72.82,80.91 V 842.23 c 0,53.93 -24.29,80.911 -72.82,80.911 z M 1809.46,17.0313 V 1149.67 h 294.48 c 92.78,0 165.3,-24.27 217.64,-72.81 52.3,-48.54 78.48,-120.29 78.48,-215.2 V 311.512 c 0,-94.93 -27.25,-167.75 -81.71,-218.43 -54.48,-50.7226 -128.1,-76.0507 -220.87,-76.0507 h -288.02"
         style="fill:#ffffff;fill-opacity:1;fill-rule:nonzero;stroke:none"
         id="path34" />
      <path
         d="M 4107.84,17.0313 V 1149.67 H 4355.4 V 17.0313 h -247.56"
         style="fill:#ffffff;fill-opacity:1;fill-rule:nonzero;stroke:none"
         id="path36" />
      <path
         d="M 5720.85,17.0313 V 1149.67 h 247.56 V 17.0313 h -247.56"
         style="fill:#ffffff;fill-opacity:1;fill-rule:nonzero;stroke:none"
         id="path38" />
      <path
         d="M 7175.52,17.0313 6989.45,622.18 V 17.0313 H 6779.1 V 1149.67 h 226.52 l 169.9,-553.381 v 553.381 h 210.36 V 17.0313 h -210.36"
         style="fill:#ffffff;fill-opacity:1;fill-rule:nonzero;stroke:none"
         id="path40" />
      <path
         d="M 1136.72,907.73 H 1001.78 V 16.2109 H 758.645 V 907.73 H 623.719 v 243.15 H 1136.72 V 907.73"
         style="fill:#ffffff;fill-opacity:1;fill-rule:nonzero;stroke:none"
         id="path42" />
      <path
         d="m 223.277,381.172 v -89.211 c 0,-48.66 19.61,-74.609 65.844,-74.609 17.281,0 33.902,7.828 44.207,20.269 10.262,12.418 15.414,28.391 15.414,47.848 0,32.441 -9.746,64.883 -29.195,97.32 C 300.074,415.23 258.445,462.27 194.641,523.91 70.2891,644.988 8.11719,763.949 8.11719,880.738 c 0,85.41 28.63671,154.632 85.96091,207.622 57.3009,52.97 127.0549,79.48 209.2379,79.48 79.993,0 146.782,-24.61 200.305,-73.81 53.543,-49.21 80.297,-115.44 80.297,-198.69 V 810.988 H 356.457 v 73 c 0,43.242 -14.691,69.582 -56.113,69.582 -32.442,0 -48.942,-24.172 -48.942,-63.101 0,-27.039 10.004,-56.239 30.016,-87.578 20.008,-31.379 61.355,-77.321 124.09,-137.879 64.879,-62.723 112.152,-123.262 141.91,-181.66 29.734,-58.391 44.613,-121.122 44.613,-188.153 0,-87.59 -29.199,-158.699 -87.593,-213.2888 C 446.039,27.3008 374.121,0 288.715,0 206.531,0 137.875,25.3984 82.7188,76.2305 27.5664,127.039 0,195.172 0,280.602 v 100.57 h 223.277"
         style="fill:#ffffff;fill-opacity:1;fill-rule:nonzero;stroke:none"
         id="path44" />
      <path
         d="m 2680.04,381.172 v -89.211 c 0,-48.66 19.6,-74.609 65.84,-74.609 17.28,0 33.9,7.828 44.21,20.269 10.26,12.418 15.41,28.391 15.41,47.848 0,32.441 -9.75,64.883 -29.2,97.32 -19.47,32.441 -61.1,79.481 -124.91,141.121 -124.34,121.078 -186.52,240.039 -186.52,356.828 0,85.41 28.64,154.632 85.96,207.622 57.3,52.97 127.06,79.48 209.24,79.48 80,0 146.79,-24.61 200.31,-73.81 53.54,-49.21 80.29,-115.44 80.29,-198.69 v -84.352 h -227.46 v 73 c 0,43.242 -14.69,69.582 -56.11,69.582 -32.44,0 -48.94,-24.172 -48.94,-63.101 0,-27.039 10,-56.239 30.01,-87.578 20.01,-31.379 61.36,-77.321 124.09,-137.879 64.88,-62.723 112.16,-123.262 141.91,-181.66 29.74,-58.391 44.62,-121.122 44.62,-188.153 0,-87.59 -29.2,-158.699 -87.6,-213.2888 C 2902.8,27.3008 2830.88,0 2745.47,0 c -82.18,0 -150.84,25.3984 -205.99,76.2305 -55.16,50.8085 -82.72,118.9415 -82.72,204.3715 v 100.57 h 223.28"
         style="fill:#ffffff;fill-opacity:1;fill-rule:nonzero;stroke:none"
         id="path46" />
      <path
         d="m 4643.16,381.172 v -89.211 c 0,-48.66 19.61,-74.609 65.84,-74.609 17.28,0 33.9,7.828 44.21,20.269 10.26,12.418 15.41,28.391 15.41,47.848 0,32.441 -9.74,64.883 -29.19,97.32 -19.48,32.441 -61.11,79.481 -124.91,141.121 -124.35,121.078 -186.53,240.039 -186.53,356.828 0,85.41 28.64,154.632 85.97,207.622 57.3,52.97 127.05,79.48 209.23,79.48 80,0 146.79,-24.61 200.31,-73.81 53.55,-49.21 80.3,-115.44 80.3,-198.69 v -84.352 h -227.46 v 73 c 0,43.242 -14.7,69.582 -56.12,69.582 -32.44,0 -48.94,-24.172 -48.94,-63.101 0,-27.039 10.01,-56.239 30.02,-87.578 20.01,-31.379 61.36,-77.321 124.09,-137.879 64.88,-62.723 112.15,-123.262 141.91,-181.66 29.73,-58.391 44.61,-121.122 44.61,-188.153 0,-87.59 -29.2,-158.699 -87.59,-213.2888 C 4865.92,27.3008 4794,0 4708.6,0 c -82.19,0 -150.85,25.3984 -206,76.2305 -55.15,50.8085 -82.72,118.9415 -82.72,204.3715 v 100.57 h 223.28"
         style="fill:#ffffff;fill-opacity:1;fill-rule:nonzero;stroke:none"
         id="path48" />
      <path
         d="m 5283.66,381.172 v -89.211 c 0,-48.66 19.61,-74.609 65.84,-74.609 17.28,0 33.9,7.828 44.21,20.269 10.26,12.418 15.41,28.391 15.41,47.848 0,32.441 -9.74,64.883 -29.2,97.32 -19.47,32.441 -61.1,79.481 -124.9,141.121 -124.35,121.078 -186.53,240.039 -186.53,356.828 0,85.41 28.64,154.632 85.97,207.622 57.3,52.97 127.05,79.48 209.23,79.48 80,0 146.79,-24.61 200.31,-73.81 53.54,-49.21 80.3,-115.44 80.3,-198.69 v -84.352 h -227.46 v 73 c 0,43.242 -14.7,69.582 -56.12,69.582 -32.44,0 -48.94,-24.172 -48.94,-63.101 0,-27.039 10.01,-56.239 30.02,-87.578 20.01,-31.379 61.35,-77.321 124.09,-137.879 64.88,-62.723 112.15,-123.262 141.91,-181.66 29.73,-58.391 44.61,-121.122 44.61,-188.153 0,-87.59 -29.2,-158.699 -87.59,-213.2888 C 5506.42,27.3008 5434.5,0 5349.1,0 c -82.19,0 -150.85,25.3984 -206,76.2305 -55.15,50.8085 -82.72,118.9415 -82.72,204.3715 v 100.57 h 223.28"
         style="fill:#ffffff;fill-opacity:1;fill-rule:nonzero;stroke:none"
         id="path50" />
      <path
         d="M 6321.68,874.371 V 292.262 c 0,-43.133 23.09,-64.68 60.85,-64.68 37.71,0 58.18,19.957 58.18,63.078 v 582.121 c 0,43.098 -20.47,66.27 -58.18,66.27 -37.76,0 -60.85,-21.571 -60.85,-64.68 z M 6083.38,289.02 v 582.121 c 0,87.32 29.11,158.189 87.3,212.639 58.22,54.41 129.92,81.66 215.08,81.66 85.14,0 155.75,-26.16 211.82,-78.43 56.04,-52.3 84.07,-122.08 84.07,-209.401 V 295.488 c 0,-87.316 -29.08,-158.207 -87.3,-212.6286 -58.21,-54.4492 -129.91,-81.66018 -215.08,-81.66018 -85.14,0 -155.77,26.12108 -211.8,78.42188 -56.07,52.2699 -84.09,122.0779 -84.09,209.3989"
         style="fill:#ffffff;fill-opacity:1;fill-rule:nonzero;stroke:none"
         id="path52" />
      <path
         d="M 3480.81,18.2109 3331.89,673.859 V 17.8906 h -221.6 V 1150.17 h 269.73 l 180.79,-491.479 180.78,491.479 h 253.56 V 17.8906 H 3773.56 V 673.859 L 3625.25,18.2109 h -144.44"
         style="fill:#ffffff;fill-opacity:1;fill-rule:nonzero;stroke:none"
         id="path54" />
    </g>
  </g>
</svg>
